<svg version="1.2" xmlns="http://www.w3.org/2000/svg" viewBox="0 0 400 400" width="400" height="400">
	<title>SpotsAds-Dark</title>
	<style>
		.s0 { fill: #ff4600 } 
	</style>
	<path class="s0" d="m141.3 127l100.1-45c5.8-2.6 11.6-5.5 17.6-7.8 0.3 0.3 0 3.2 0 3.8v177.8c-26.6-11.6-54.4-23.9-80.4-36.5l-21.7-9.7c-5.2-2.4-10.4-4.8-15.6-6.9-0.9-24.8 0.3-50.7 0-75.7zm30.1 4.8c-9.2 1.9-7.8 9.5-7.8 16.7l0.1 32.3c0 5.5-1.3 11.8 4.3 15.1 5.5 3.1 13.8-3.2 18.4-5.7q8.6-4.6 17.4-9.1c4.3-2.2 17-8.4 19.9-11 4.7-4 2.9-10.5-1.8-13.4-3.6-2.2-7.6-4-11.3-5.9l-30.2-15.7c-2.8-1.4-5.7-3.5-9-3.3z"/>
	<path class="s0" d="m294.3 123c-5.3 0.7-10-2.2-11.2-7.6-1.3-5.8 2.5-8.7 6.1-12.3l8.1-8.1c3.3-3.4 5.9-7.7 10.9-8.6 8.2-0.6 14.4 8.1 9.6 15.3-3 4.5-18.5 20.3-23.5 21.3z"/>
	<path class="s0" d="m92.1 214.4c-10 0-18.7-1.6-26.7-7.9-14.7-11.3-13.9-25.3-13.9-41.6 0-7.2-0.7-17.7 0.9-24.5 3.6-14.9 16.3-25.6 31.4-27.4h39.9c-0.2 3.6 0 7.3 0 10.9v90.5z"/>
	<path class="s0" d="m342.1 173h-21.4c-4.9 0-11.1 1.1-15.3-2.1-7.1-5.3-3.1-15.7 5.3-16.8 7.8-0.2 23-0.8 30.5 0 10.6 1.2 12.5 15.6 0.9 18.9z"/>
	<path class="s0" d="m311.3 240.8c-8.1 0.6-13-6.9-18.1-11.9-3-2.9-7-6.2-9.4-9.5-4.4-6.2 0.6-14.2 7.4-15.4 6.8-0.4 9.1 3.5 13.5 7.8l8 8c2.9 2.8 6.4 5.3 7.2 9.5 1 5.8-3.1 10.5-8.6 11.5z"/>
	<path class="s0" d="m197.4 282.9v-24c0-4 0.2-8 0-11.9 6 2.2 14.5 5.9 20.3 8.8v28c7.7 7.9 15.4 15.9 23.3 23.7l9.7 9.4c9.2 8.6 6.7 8.9-5.1 8.9h-14.4l-19.6-20q-2.1-2.1-4.4-4.3c-7.9 6.9-15.9 16.7-23.8 24.3-2.5 0.2-23.6 0.1-25.2-0.4-2-3.2 7.6-10.3 9.8-12.7q14.6-15 29.4-29.8z"/>
</svg>